<svg width="449" height="153" viewBox="0 0 449 153" fill="none" xmlns="http://www.w3.org/2000/svg">
<path d="M23.794 97.04H25.0883L21.8128 115.76C24.1823 113.66 27.4577 112.13 31.1315 112.13C37.8517 112.13 42.6504 117.06 42.6504 124.38C42.6504 128.75 41.0675 132.89 38.3595 135.95C35.6515 139.01 31.7487 140.83 27.3482 140.83C23.4554 140.83 20.5185 139.81 17.8005 137.94L16.556 138.17L23.784 97.05L23.794 97.04ZM27.408 139.57C31.47 139.57 34.9745 137.81 37.4037 135.09C39.833 132.37 41.3562 128.51 41.3562 124.37C41.3562 117.79 37.0651 113.37 30.9622 113.37C27.3482 113.37 24.0727 114.96 21.534 117.34L18.1489 136.57C20.1799 138.21 23.2862 139.58 27.408 139.58V139.57Z" fill="#F8F8F7"/>
<path d="M45.5376 152.84L55.8718 137.3L48.3054 112.57H49.5997L56.718 135.94H56.7778L72.1895 112.57H73.6033L47.011 152.84H45.5476H45.5376Z" fill="#F8F8F7"/>
<path d="M99.2894 104.01L97.7663 112.57H107.533L107.304 113.76H97.587L94.421 131.68C94.2517 132.64 94.1423 133.55 94.1423 134.4C94.1423 137.92 96.3426 139.56 99.6181 139.56C100.693 139.56 101.759 139.39 102.615 138.99L102.386 140.29C101.48 140.63 100.464 140.8 99.3393 140.8C95.4465 140.8 92.848 138.59 92.848 134.5C92.848 133.65 92.9575 132.63 93.1268 131.66L96.2927 113.74H90.3092L90.5383 112.55H96.472L97.9354 104.27L99.2894 103.99V104.01Z" fill="#F8F8F7"/>
<path d="M120.645 140.82C114.094 140.82 109.574 136.11 109.574 129.19C109.574 124.6 111.386 120.29 114.373 117.17C117.359 114.05 121.202 112.12 125.951 112.12C129.058 112.12 131.766 113.03 134.254 114.56L135.778 114.28L131.208 140.37H129.914L130.481 137.14L130.421 137.08C127.883 139.24 124.488 140.82 120.655 140.82H120.645ZM120.814 139.57C124.597 139.57 128.102 137.92 130.81 135.37L134.195 115.97C131.875 114.32 128.948 113.36 126.011 113.36C121.611 113.36 117.937 115.17 115.229 118.01C112.521 120.85 110.878 124.93 110.878 129.07C110.878 135.42 114.89 139.56 120.814 139.56V139.57Z" fill="#F8F8F7"/>
<path d="M149.726 97.04H151.02L143.394 140.37H142.1L149.726 97.04Z" fill="#F8F8F7"/>
<path d="M158.308 117C160.847 113.99 164.58 112.12 168.811 112.12C175.024 112.12 179.882 115.92 179.882 122.5C179.882 123.86 179.653 125.39 179.315 126.58H155.769C155.709 127.09 155.709 127.71 155.709 128.11C155.709 134.97 160.508 139.57 167.457 139.57C171.3 139.57 174.795 138.1 177.164 136.17L176.716 137.98C174.566 139.4 171.241 140.82 167.338 140.82C159.712 140.82 154.405 135.72 154.405 128.17C154.405 123.92 155.759 120 158.298 117H158.308ZM178.24 125.34C178.409 124.43 178.518 123.53 178.518 122.67C178.518 116.26 173.72 113.37 168.802 113.37C161.972 113.37 157.054 118.53 155.928 125.34H178.23H178.24Z" fill="#F8F8F7"/>
<path d="M190.266 112.58H191.561L190.824 116.83L190.933 116.89C193.751 114.62 198.102 112.13 202.9 112.13C207.699 112.13 210.915 114.74 210.915 119.56C210.915 120.69 210.805 121.72 210.576 123.02L207.53 140.38H206.236L209.282 123.02C209.511 121.72 209.621 120.69 209.621 119.62C209.621 115.31 206.793 113.38 202.731 113.38C198.331 113.38 194.318 115.48 190.535 118.48L186.692 140.37H185.398L190.256 112.58H190.266Z" fill="#F8F8F7"/>
<path d="M227.252 104.01L225.729 112.57H235.496L235.267 113.76H225.56L222.394 131.68C222.225 132.64 222.115 133.55 222.115 134.4C222.115 137.92 224.315 139.56 227.591 139.56C228.666 139.56 229.741 139.39 230.588 138.99L230.359 140.29C229.453 140.63 228.437 140.8 227.312 140.8C223.42 140.8 220.821 138.59 220.821 134.5C220.821 133.65 220.931 132.63 221.1 131.66L224.266 113.74H218.282L218.511 112.55H224.445L225.908 104.27L227.262 103.99L227.252 104.01Z" fill="#F8F8F7"/>
<path d="M237.537 128.23C237.537 123.86 239.06 119.95 241.768 116.94C244.476 113.93 248.2 112.12 252.72 112.12C260.286 112.12 265.364 117.51 265.364 124.71C265.364 129.08 263.84 132.99 261.132 136C258.424 139.01 254.701 140.82 250.181 140.82C242.614 140.82 237.527 135.43 237.527 128.23H237.537ZM260.236 135.15C262.666 132.43 264.079 128.68 264.079 124.77C264.079 118.19 259.559 113.37 252.62 113.37C248.498 113.37 245.113 115.07 242.684 117.79C240.255 120.51 238.841 124.26 238.841 128.17C238.841 134.75 243.361 139.57 250.3 139.57C254.422 139.57 257.807 137.87 260.236 135.15Z" fill="#F8F8F7"/>
<path d="M280.676 139.57C286.102 139.57 289.706 137.02 289.706 133.05C289.706 130.72 288.461 129.19 286.092 128.17C283.722 127.15 278.973 126.3 276.544 124.99C274.115 123.69 272.761 122.1 272.761 119.55C272.761 115.07 276.883 112.12 282.757 112.12C286.201 112.12 290.154 113.25 292.921 114.96L292.643 116.43C290.044 114.5 286.211 113.37 282.767 113.37C277.739 113.37 274.065 115.64 274.065 119.44C274.065 121.31 274.971 122.73 277.231 123.92C279.491 125.11 284.29 126.02 286.769 127.1C289.258 128.18 291 129.94 291 133C291 137.65 286.649 140.83 280.606 140.83C276.713 140.83 272.532 139.58 269.824 137.54L270.053 136.07C272.821 138.34 277.112 139.59 280.666 139.59L280.676 139.57Z" fill="#F8F8F7"/>
<path d="M383.659 62.67H345.996C347.649 70.17 354.23 73.37 362.364 73.37C368.626 73.37 375.217 71.27 381.031 67.97V82.09C375.764 85.07 367.74 86.83 360.273 86.83C341.715 86.83 329.081 75.91 329.081 58.26C329.081 40.61 342.044 29.47 357.635 29.47C371.692 29.47 383.988 38.07 383.988 56.83C383.988 58.71 383.878 61.13 383.659 62.68V62.67ZM345.887 52.3H368.726C367.74 44.91 362.901 42.37 357.525 42.37C352.149 42.37 347.201 45.57 345.887 52.3Z" fill="#5C53CE"/>
<path d="M432.633 81.98C429.009 84.85 423.841 86.61 418.356 86.61C404.736 86.61 392.879 76.02 392.879 59.03C392.879 42.04 405.174 29.47 421.432 29.47C425.713 29.47 429.337 30.46 432.304 31.79V1.34H449V85.61H432.633V81.97V81.98ZM432.304 69.73V45.9C429.885 44.58 426.918 43.69 423.513 43.69C414.393 43.69 409.674 50.53 409.674 58.47C409.674 66.41 414.393 72.92 422.856 72.92C426.699 72.92 429.885 71.49 432.304 69.72V69.73Z" fill="#5C53CE"/>
<path d="M16.775 44.56H0.51709V30.66H16.775V25.92C16.775 9.04 26.2232 0 41.8141 0C46.6427 0 51.3718 0.99 54.7767 2.98V17.1C51.9193 15.45 47.9668 14.34 44.0143 14.34C36.4379 14.34 33.3616 19.08 33.3616 27.36V30.67H53.1339V44.57H33.3616V85.6H16.775V44.57V44.56Z" fill="#E9AF27"/>
<path d="M63.5479 58.13C63.5479 41.8 75.6243 29.45 92.9774 29.45C110.331 29.45 122.407 41.8 122.407 58.13C122.407 74.46 110.331 86.81 92.9774 86.81C75.6243 86.81 63.5479 74.46 63.5479 58.13ZM105.611 58.13C105.611 50.3 100.783 44.01 92.9774 44.01C85.172 44.01 80.3434 50.3 80.3434 58.13C80.3434 65.96 85.172 72.25 92.9774 72.25C100.783 72.25 105.611 65.96 105.611 58.13Z" fill="#E9AF27"/>
<path d="M164.142 86.81C145.913 86.81 133.498 74.9 133.498 58.24C133.498 41.58 147.008 29.45 164.58 29.45C171.28 29.45 177.981 30.99 182.371 33.97V48.97C177.652 45.77 172.157 43.9 166.004 43.9C156.665 43.9 150.413 49.86 150.413 58.13C150.413 66.4 156.785 72.36 166.223 72.36C172.485 72.36 179.076 70.15 182.809 67.18V82.18C178.2 85.38 170.952 86.81 164.142 86.81Z" fill="#E9AF27"/>
<path d="M234.202 81.07C229.921 84.49 224.425 86.59 218.173 86.59C211.92 86.59 207.082 84.71 203.567 80.74C200.053 76.77 198.848 72.14 198.848 64.86V30.67H215.544V62.33C215.544 66.19 215.982 68.4 217.526 69.94C219.059 71.48 221.588 72.15 224.116 72.15C227.74 72.15 231.145 70.72 234.003 68.73V30.67H250.699V85.6H234.222V81.08L234.202 81.07Z" fill="#E9AF27"/>
<path d="M290.532 73.9C295.142 73.9 298.109 72.69 298.109 69.49C298.109 67.17 296.346 66.18 292.951 65.41C287.685 64.2 279.879 62.98 275.051 60.56C270.222 58.14 267.693 53.94 267.693 47.76C267.693 35.63 277.251 29.45 290.861 29.45C297.451 29.45 305.794 30.99 311.619 33.86V47.54C304.48 43.9 296.356 42.36 291.518 42.36C287.127 42.36 284.489 43.57 284.489 46.44C284.489 48.98 286.47 49.86 290.313 50.63C295.699 51.73 302.718 52.84 307.447 55.26C312.385 57.8 314.914 61.88 314.914 68.28C314.914 81.19 304.261 86.81 290.751 86.81C283.832 86.81 274.832 85.49 268.46 82.07V67.51C275.817 72.03 285.156 73.91 290.532 73.91V73.9Z" fill="#E9AF27"/>
</svg>
