<svg width="451" height="153" viewBox="0 0 451 153" fill="none" xmlns="http://www.w3.org/2000/svg">
<path d="M23.88 97.04H25.18L21.89 115.76C24.27 113.66 27.56 112.13 31.25 112.13C38 112.13 42.82 117.06 42.82 124.38C42.82 128.75 41.23 132.89 38.51 135.95C35.79 139.01 31.87 140.83 27.45 140.83C23.54 140.83 20.59 139.81 17.87 137.94L16.62 138.17L23.88 97.05V97.04ZM27.51 139.57C31.59 139.57 35.11 137.81 37.55 135.09C39.99 132.37 41.52 128.51 41.52 124.37C41.52 117.79 37.21 113.37 31.08 113.37C27.45 113.37 24.16 114.96 21.61 117.34L18.21 136.57C20.25 138.21 23.37 139.58 27.51 139.58V139.57Z" fill="#323F49"/>
<path d="M45.72 152.84L56.1 137.3L48.5 112.57H49.8L56.95 135.94H57.01L72.49 112.57H73.91L47.2 152.84H45.73H45.72Z" fill="#323F49"/>
<path d="M99.71 104.01L98.18 112.57H107.99L107.76 113.76H98L94.82 131.68C94.65 132.64 94.54 133.55 94.54 134.4C94.54 137.92 96.75 139.56 100.04 139.56C101.12 139.56 102.2 139.39 103.05 138.99L102.82 140.29C101.91 140.63 100.89 140.8 99.76 140.8C95.85 140.8 93.24 138.59 93.24 134.5C93.24 133.65 93.35 132.63 93.52 131.66L96.7 113.74H90.69L90.92 112.55H96.88L98.35 104.27L99.71 103.99V104.01Z" fill="#323F49"/>
<path d="M121.16 140.82C114.58 140.82 110.04 136.11 110.04 129.19C110.04 124.6 111.85 120.29 114.86 117.17C117.87 114.05 121.72 112.12 126.49 112.12C129.61 112.12 132.33 113.03 134.83 114.56L136.36 114.28L131.77 140.37H130.47L131.04 137.14L130.98 137.08C128.43 139.24 125.02 140.82 121.17 140.82H121.16ZM121.33 139.57C125.13 139.57 128.65 137.92 131.37 135.37L134.77 115.97C132.44 114.32 129.5 113.36 126.55 113.36C122.13 113.36 118.44 115.17 115.72 118.01C113 120.85 111.35 124.93 111.35 129.07C111.35 135.42 115.38 139.56 121.33 139.56V139.57Z" fill="#323F49"/>
<path d="M150.37 97.04H151.67L144.01 140.37H142.71L150.37 97.04Z" fill="#323F49"/>
<path d="M158.99 117C161.54 113.99 165.29 112.12 169.54 112.12C175.78 112.12 180.66 115.92 180.66 122.5C180.66 123.86 180.43 125.39 180.09 126.58H156.44C156.38 127.09 156.38 127.71 156.38 128.11C156.38 134.97 161.2 139.57 168.18 139.57C172.04 139.57 175.55 138.1 177.94 136.17L177.49 137.98C175.33 139.4 171.99 140.82 168.07 140.82C160.41 140.82 155.08 135.72 155.08 128.17C155.08 123.92 156.44 120 158.99 117ZM179.01 125.34C179.18 124.43 179.29 123.53 179.29 122.67C179.29 116.26 174.47 113.37 169.53 113.37C162.67 113.37 157.73 118.53 156.6 125.34H179H179.01Z" fill="#323F49"/>
<path d="M191.09 112.58H192.39L191.65 116.83L191.76 116.89C194.6 114.62 198.96 112.13 203.78 112.13C208.6 112.13 211.83 114.74 211.83 119.56C211.83 120.69 211.72 121.72 211.49 123.02L208.43 140.38H207.13L210.19 123.02C210.42 121.72 210.53 120.69 210.53 119.62C210.53 115.31 207.69 113.38 203.61 113.38C199.19 113.38 195.16 115.48 191.36 118.48L187.5 140.37H186.2L191.08 112.58H191.09Z" fill="#323F49"/>
<path d="M228.24 104.01L226.71 112.57H236.52L236.29 113.76H226.54L223.36 131.68C223.19 132.64 223.08 133.55 223.08 134.4C223.08 137.92 225.29 139.56 228.58 139.56C229.66 139.56 230.74 139.39 231.59 138.99L231.36 140.29C230.45 140.63 229.43 140.8 228.3 140.8C224.39 140.8 221.78 138.59 221.78 134.5C221.78 133.65 221.89 132.63 222.06 131.66L225.24 113.74H219.23L219.46 112.55H225.42L226.89 104.27L228.25 103.99L228.24 104.01Z" fill="#323F49"/>
<path d="M238.57 128.23C238.57 123.86 240.1 119.95 242.82 116.94C245.54 113.93 249.28 112.12 253.82 112.12C261.42 112.12 266.52 117.51 266.52 124.71C266.52 129.08 264.99 132.99 262.27 136C259.55 139.01 255.81 140.82 251.27 140.82C243.67 140.82 238.56 135.43 238.56 128.23H238.57ZM261.37 135.15C263.81 132.43 265.23 128.68 265.23 124.77C265.23 118.19 260.69 113.37 253.72 113.37C249.58 113.37 246.18 115.07 243.74 117.79C241.3 120.51 239.88 124.26 239.88 128.17C239.88 134.75 244.42 139.57 251.39 139.57C255.53 139.57 258.93 137.87 261.37 135.15Z" fill="#323F49"/>
<path d="M281.9 139.57C287.35 139.57 290.97 137.02 290.97 133.05C290.97 130.72 289.72 129.19 287.34 128.17C284.96 127.15 280.19 126.3 277.75 124.99C275.31 123.69 273.95 122.1 273.95 119.55C273.95 115.07 278.09 112.12 283.99 112.12C287.45 112.12 291.42 113.25 294.2 114.96L293.92 116.43C291.31 114.5 287.46 113.37 284 113.37C278.95 113.37 275.26 115.64 275.26 119.44C275.26 121.31 276.17 122.73 278.44 123.92C280.71 125.11 285.53 126.02 288.02 127.1C290.52 128.18 292.27 129.94 292.27 133C292.27 137.65 287.9 140.83 281.83 140.83C277.92 140.83 273.72 139.58 271 137.54L271.23 136.07C274.01 138.34 278.32 139.59 281.89 139.59L281.9 139.57Z" fill="#323F49"/>
<path d="M385.34 62.67H347.51C349.17 70.17 355.78 73.37 363.95 73.37C370.24 73.37 376.86 71.27 382.7 67.97V82.09C377.41 85.07 369.35 86.83 361.85 86.83C343.21 86.83 330.52 75.91 330.52 58.26C330.52 40.61 343.54 29.47 359.2 29.47C373.32 29.47 385.67 38.07 385.67 56.83C385.67 58.71 385.56 61.13 385.34 62.68V62.67ZM347.4 52.3H370.34C369.35 44.91 364.49 42.37 359.09 42.37C353.69 42.37 348.72 45.57 347.4 52.3Z" fill="#5C53CE"/>
<path d="M434.53 81.98C430.89 84.85 425.7 86.61 420.19 86.61C406.51 86.61 394.6 76.02 394.6 59.03C394.6 42.04 406.95 29.47 423.28 29.47C427.58 29.47 431.22 30.46 434.2 31.79V1.34H450.97V85.61H434.53V81.97V81.98ZM434.2 69.73V45.9C431.77 44.58 428.79 43.69 425.37 43.69C416.21 43.69 411.47 50.53 411.47 58.47C411.47 66.41 416.21 72.92 424.71 72.92C428.57 72.92 431.77 71.49 434.2 69.72V69.73Z" fill="#5C53CE"/>
<path d="M16.83 44.56H0.5V30.66H16.83V25.92C16.83 9.04 26.32 0 41.98 0C46.83 0 51.58 0.99 55 2.98V17.1C52.13 15.45 48.16 14.34 44.19 14.34C36.58 14.34 33.49 19.08 33.49 27.36V30.67H53.35V44.57H33.49V85.6H16.83V44.57V44.56Z" fill="#323F49"/>
<path d="M63.81 58.13C63.81 41.8 75.94 29.45 93.37 29.45C110.8 29.45 122.93 41.8 122.93 58.13C122.93 74.46 110.8 86.81 93.37 86.81C75.94 86.81 63.81 74.46 63.81 58.13ZM106.06 58.13C106.06 50.3 101.21 44.01 93.37 44.01C85.53 44.01 80.68 50.3 80.68 58.13C80.68 65.96 85.53 72.25 93.37 72.25C101.21 72.25 106.06 65.96 106.06 58.13Z" fill="#323F49"/>
<path d="M164.85 86.81C146.54 86.81 134.07 74.9 134.07 58.24C134.07 41.58 147.64 29.45 165.29 29.45C172.02 29.45 178.75 30.99 183.16 33.97V48.97C178.42 45.77 172.9 43.9 166.72 43.9C157.34 43.9 151.06 49.86 151.06 58.13C151.06 66.4 157.46 72.36 166.94 72.36C173.23 72.36 179.85 70.15 183.6 67.18V82.18C178.97 85.38 171.69 86.81 164.85 86.81Z" fill="#323F49"/>
<path d="M235.22 81.07C230.92 84.49 225.4 86.59 219.12 86.59C212.84 86.59 207.98 84.71 204.45 80.74C200.92 76.77 199.71 72.14 199.71 64.86V30.67H216.48V62.33C216.48 66.19 216.92 68.4 218.47 69.94C220.01 71.48 222.55 72.15 225.09 72.15C228.73 72.15 232.15 70.72 235.02 68.73V30.67H251.79V85.6H235.24V81.08L235.22 81.07Z" fill="#323F49"/>
<path d="M291.8 73.9C296.43 73.9 299.41 72.69 299.41 69.49C299.41 67.17 297.64 66.18 294.23 65.41C288.94 64.2 281.1 62.98 276.25 60.56C271.4 58.14 268.86 53.94 268.86 47.76C268.86 35.63 278.46 29.45 292.13 29.45C298.75 29.45 307.13 30.99 312.98 33.86V47.54C305.81 43.9 297.65 42.36 292.79 42.36C288.38 42.36 285.73 43.57 285.73 46.44C285.73 48.98 287.72 49.86 291.58 50.63C296.99 51.73 304.04 52.84 308.79 55.26C313.75 57.8 316.29 61.88 316.29 68.28C316.29 81.19 305.59 86.81 292.02 86.81C285.07 86.81 276.03 85.49 269.63 82.07V67.51C277.02 72.03 286.4 73.91 291.8 73.91V73.9Z" fill="#323F49"/>
</svg>
