<svg width="452" height="154" viewBox="0 0 452 154" fill="none" xmlns="http://www.w3.org/2000/svg">
<path d="M24.13 97.7H25.43L22.14 116.42C24.52 114.32 27.81 112.79 31.5 112.79C38.25 112.79 43.07 117.72 43.07 125.04C43.07 129.41 41.48 133.55 38.76 136.61C36.04 139.67 32.12 141.49 27.7 141.49C23.79 141.49 20.84 140.47 18.12 138.6L16.87 138.83L24.13 97.71V97.7ZM27.76 140.24C31.84 140.24 35.36 138.48 37.8 135.76C40.24 133.04 41.77 129.18 41.77 125.04C41.77 118.46 37.46 114.04 31.33 114.04C27.7 114.04 24.41 115.63 21.86 118.01L18.46 137.24C20.5 138.88 23.62 140.25 27.76 140.25V140.24Z" fill="#5C53CE"/>
<path d="M45.97 153.51L56.35 137.97L48.75 113.24H50.05L57.2 136.61H57.26L72.74 113.24H74.16L47.45 153.51H45.98H45.97Z" fill="#5C53CE"/>
<path d="M99.96 104.68L98.43 113.24H108.24L108.01 114.43H98.25L95.07 132.35C94.9 133.31 94.79 134.22 94.79 135.07C94.79 138.59 97 140.23 100.29 140.23C101.37 140.23 102.45 140.06 103.3 139.66L103.07 140.96C102.16 141.3 101.14 141.47 100.01 141.47C96.1 141.47 93.49 139.26 93.49 135.17C93.49 134.32 93.6 133.3 93.77 132.33L96.95 114.41H90.94L91.17 113.22H97.13L98.6 104.94L99.96 104.66V104.68Z" fill="#5C53CE"/>
<path d="M121.41 141.49C114.83 141.49 110.29 136.78 110.29 129.86C110.29 125.27 112.1 120.96 115.11 117.84C118.12 114.72 121.97 112.79 126.74 112.79C129.86 112.79 132.58 113.7 135.08 115.23L136.61 114.95L132.02 141.04H130.72L131.29 137.81L131.23 137.75C128.68 139.91 125.27 141.49 121.42 141.49H121.41ZM121.58 140.24C125.38 140.24 128.9 138.59 131.62 136.04L135.02 116.64C132.69 114.99 129.75 114.03 126.8 114.03C122.38 114.03 118.69 115.84 115.97 118.68C113.25 121.52 111.6 125.6 111.6 129.74C111.6 136.09 115.63 140.23 121.58 140.23V140.24Z" fill="#5C53CE"/>
<path d="M150.62 97.7H151.92L144.26 141.03H142.96L150.62 97.7Z" fill="#5C53CE"/>
<path d="M159.24 117.67C161.79 114.66 165.54 112.79 169.79 112.79C176.03 112.79 180.91 116.59 180.91 123.17C180.91 124.53 180.68 126.06 180.34 127.25H156.69C156.63 127.76 156.63 128.38 156.63 128.78C156.63 135.64 161.45 140.24 168.43 140.24C172.29 140.24 175.8 138.77 178.19 136.84L177.74 138.66C175.58 140.08 172.24 141.5 168.32 141.5C160.66 141.5 155.33 136.4 155.33 128.85C155.33 124.6 156.69 120.68 159.24 117.68V117.67ZM179.26 126C179.43 125.09 179.54 124.19 179.54 123.33C179.54 116.92 174.72 114.03 169.78 114.03C162.92 114.03 157.98 119.19 156.85 126H179.25H179.26Z" fill="#5C53CE"/>
<path d="M191.34 113.24H192.64L191.9 117.49L192.01 117.55C194.85 115.28 199.21 112.79 204.03 112.79C208.85 112.79 212.08 115.4 212.08 120.22C212.08 121.35 211.97 122.38 211.74 123.68L208.68 141.04H207.38L210.44 123.68C210.67 122.38 210.78 121.36 210.78 120.28C210.78 115.97 207.94 114.04 203.86 114.04C199.44 114.04 195.41 116.14 191.61 119.14L187.75 141.03H186.45L191.33 113.24H191.34Z" fill="#5C53CE"/>
<path d="M228.49 104.68L226.96 113.24H236.77L236.54 114.43H226.78L223.6 132.35C223.43 133.31 223.32 134.22 223.32 135.07C223.32 138.59 225.53 140.23 228.82 140.23C229.9 140.23 230.98 140.06 231.83 139.66L231.6 140.96C230.69 141.3 229.67 141.47 228.54 141.47C224.63 141.47 222.02 139.26 222.02 135.17C222.02 134.32 222.13 133.3 222.3 132.33L225.48 114.41H219.47L219.7 113.22H225.66L227.13 104.94L228.49 104.66V104.68Z" fill="#5C53CE"/>
<path d="M238.82 128.9C238.82 124.53 240.35 120.62 243.07 117.61C245.79 114.6 249.54 112.79 254.07 112.79C261.67 112.79 266.77 118.18 266.77 125.38C266.77 129.75 265.24 133.66 262.52 136.67C259.8 139.68 256.05 141.49 251.52 141.49C243.92 141.49 238.82 136.1 238.82 128.9ZM261.62 135.82C264.06 133.1 265.48 129.35 265.48 125.44C265.48 118.86 260.94 114.04 253.97 114.04C249.83 114.04 246.43 115.74 243.99 118.46C241.55 121.18 240.13 124.92 240.13 128.84C240.13 135.42 244.67 140.24 251.64 140.24C255.78 140.24 259.18 138.54 261.62 135.82Z" fill="#5C53CE"/>
<path d="M282.15 140.24C287.59 140.24 291.22 137.69 291.22 133.72C291.22 131.39 289.97 129.86 287.59 128.84C285.21 127.82 280.44 126.97 278 125.66C275.56 124.36 274.2 122.77 274.2 120.21C274.2 115.73 278.34 112.78 284.24 112.78C287.7 112.78 291.67 113.91 294.45 115.62L294.17 117.09C291.56 115.16 287.7 114.03 284.24 114.03C279.19 114.03 275.51 116.3 275.51 120.1C275.51 121.97 276.42 123.39 278.69 124.58C280.96 125.77 285.78 126.68 288.28 127.76C290.78 128.84 292.53 130.6 292.53 133.66C292.53 138.31 288.16 141.49 282.09 141.49C278.18 141.49 273.98 140.24 271.26 138.2L271.49 136.73C274.27 139 278.58 140.25 282.15 140.25V140.24Z" fill="#5C53CE"/>
<path d="M385.59 63.34H347.76C349.42 70.84 356.03 74.04 364.2 74.04C370.49 74.04 377.11 71.94 382.95 68.64V82.76C377.66 85.74 369.6 87.5 362.1 87.5C343.46 87.5 330.77 76.58 330.77 58.93C330.77 41.28 343.79 30.14 359.45 30.14C373.57 30.14 385.92 38.74 385.92 57.5C385.92 59.38 385.81 61.8 385.59 63.35V63.34ZM347.65 52.97H370.59C369.6 45.58 364.74 43.04 359.34 43.04C353.94 43.04 348.97 46.24 347.65 52.97Z" fill="#E9AF27"/>
<path d="M434.78 82.64C431.14 85.51 425.95 87.27 420.44 87.27C406.76 87.27 394.85 76.68 394.85 59.69C394.85 42.7 407.2 30.13 423.53 30.13C427.83 30.13 431.47 31.12 434.45 32.45V2.01001H451.22V86.28H434.78V82.64ZM434.45 70.4V46.57C432.02 45.25 429.04 44.36 425.62 44.36C416.46 44.36 411.72 51.2 411.72 59.14C411.72 67.08 416.46 73.59 424.96 73.59C428.82 73.59 432.02 72.16 434.45 70.39V70.4Z" fill="#E9AF27"/>
<path d="M17.08 45.23H0.75V31.33H17.08V26.59C17.08 9.71 26.57 0.670013 42.23 0.670013C47.08 0.670013 51.83 1.65999 55.25 3.64999V17.77C52.38 16.12 48.41 15.01 44.44 15.01C36.83 15.01 33.74 19.75 33.74 28.03V31.34H53.6V45.24H33.74V86.27H17.08V45.24V45.23Z" fill="#5C53CE"/>
<path d="M64.06 58.8C64.06 42.47 76.19 30.12 93.62 30.12C111.05 30.12 123.18 42.47 123.18 58.8C123.18 75.13 111.05 87.48 93.62 87.48C76.19 87.48 64.06 75.13 64.06 58.8ZM106.31 58.8C106.31 50.97 101.46 44.68 93.62 44.68C85.78 44.68 80.93 50.97 80.93 58.8C80.93 66.63 85.78 72.92 93.62 72.92C101.46 72.92 106.31 66.63 106.31 58.8Z" fill="#5C53CE"/>
<path d="M165.1 87.48C146.79 87.48 134.32 75.57 134.32 58.91C134.32 42.25 147.89 30.12 165.54 30.12C172.27 30.12 179 31.66 183.41 34.64V49.64C178.67 46.44 173.15 44.57 166.97 44.57C157.59 44.57 151.31 50.53 151.31 58.8C151.31 67.07 157.71 73.03 167.19 73.03C173.48 73.03 180.1 70.82 183.85 67.85V82.85C179.22 86.05 171.94 87.48 165.1 87.48Z" fill="#5C53CE"/>
<path d="M235.47 81.74C231.17 85.16 225.65 87.25 219.37 87.25C213.09 87.25 208.23 85.37 204.7 81.4C201.17 77.43 199.96 72.8 199.96 65.52V31.32H216.73V62.98C216.73 66.84 217.17 69.05 218.72 70.59C220.26 72.13 222.8 72.8 225.34 72.8C228.98 72.8 232.4 71.37 235.27 69.38V31.32H252.04V86.25H235.49V81.73L235.47 81.74Z" fill="#5C53CE"/>
<path d="M292.05 74.57C296.68 74.57 299.66 73.36 299.66 70.16C299.66 67.84 297.89 66.85 294.48 66.08C289.19 64.87 281.35 63.65 276.5 61.23C271.65 58.81 269.11 54.61 269.11 48.44C269.11 36.31 278.71 30.13 292.38 30.13C299 30.13 307.38 31.67 313.23 34.54V48.22C306.06 44.58 297.9 43.04 293.04 43.04C288.63 43.04 285.98 44.25 285.98 47.12C285.98 49.66 287.97 50.54 291.83 51.31C297.24 52.41 304.29 53.52 309.04 55.94C314 58.48 316.54 62.56 316.54 68.96C316.54 81.87 305.84 87.49 292.27 87.49C285.32 87.49 276.28 86.17 269.88 82.75V68.19C277.27 72.71 286.65 74.59 292.05 74.59V74.57Z" fill="#5C53CE"/>
</svg>
